/vscmnt/brussel_pixiu_data/_data_brussel/112/vsc11236/PredSimResults/SUBJ10opt3D/SUBJ10opt3D_12158438.mot
version=1
nRows=7
nColumns=50
inDegrees=yes
endheader
                time	         pelvis_tilt	         pelvis_list	     pelvis_rotation	           pelvis_tx	           pelvis_ty	           pelvis_tz	       hip_flexion_r	     hip_adduction_r	      hip_rotation_r	        knee_angle_r	       ankle_angle_r	         mtp_angle_r	       hip_flexion_l	     hip_adduction_l	      hip_rotation_l	        knee_angle_l	       ankle_angle_l	         mtp_angle_l	    lumbar_extension	      lumbar_bending	     lumbar_rotation	 ercspn_r/activation	 intobl_r/activation	 extobl_r/activation	    abd_r/activation	    add_r/activation	hamstrings_r/activation	bifemsh_r/activation	glut_max_r/activation	iliopsoas_r/activation	rect_fem_r/activation	  vasti_r/activation	gastroc_r/activation	 soleus_r/activation	tib_ant_r/activation	 ercspn_l/activation	 intobl_l/activation	 extobl_l/activation	    abd_l/activation	    add_l/activation	hamstrings_l/activation	bifemsh_l/activation	glut_max_l/activation	iliopsoas_l/activation	rect_fem_l/activation	  vasti_l/activation	gastroc_l/activation	 soleus_l/activation	tib_ant_l/activation	
          1.11237465	         -4.19936699	         -0.95469473	          7.37363735	          1.34597332	          0.82240356	         -0.01238643	         31.17038316	         -1.73808095	         -6.01775704	         -6.89188169	          3.37006834	          0.26613858	        -16.57662061	         -0.91845210	         -0.03809263	         -5.12394132	          8.09768796	         26.24085003	         -6.76639249	         -0.75642108	         -6.29093061	          0.12212973	          0.18401215	          0.01000011	          0.01000018	          0.11738301	          0.12612871	          0.25470252	          0.02692198	          0.10790991	          0.01000033	          0.01000008	          0.01000153	          0.01000005	          0.28155512	          0.06538003	          0.01000001	          0.01000005	          0.05435123	          0.01000009	          0.01425774	          0.23049885	          0.01308809	          0.37975860	          0.01000032	          0.01000003	          0.31417188	          0.25002520	          0.02538521	
          1.12349839	         -4.23836593	         -0.91845499	          7.48392170	          1.36152716	          0.82101638	         -0.01225745	         31.08846347	         -1.62579992	         -5.78213542	         -8.45511006	          3.10393708	          0.26350569	        -16.68679219	         -1.02390941	         -0.33094086	         -6.77496287	          7.40807268	         27.91741413	         -6.58284877	         -0.32874684	         -6.59117271	          0.10302881	          0.15523272	          0.01000018	          0.01000001	          0.16454971	          0.10779782	          0.21488065	          0.06368068	          0.09103282	          0.01000016	          0.01000002	          0.01665764	          0.01185416	          0.30468148	          0.10502550	          0.01000003	          0.01000009	          0.04585071	          0.01000238	          0.01346173	          0.19444889	          0.01185403	          0.32036448	          0.01000031	          0.01000008	          0.28029329	          0.24045030	          0.02141497	
          1.13462214	         -4.26729364	         -0.89503735	          7.55339187	          1.37739439	          0.81982539	         -0.01205047	         30.83534046	         -1.52383348	         -5.48278743	         -9.89607028	          2.70639812	          0.25443582	        -16.68938187	         -1.14962410	         -0.65261102	         -8.65348375	          6.58356378	         29.54280873	         -6.37629987	          0.12147142	         -6.86705661	          0.09448933	          0.13095437	          0.01000008	          0.03431092	          0.13881430	          0.09359612	          0.18127346	          0.09828546	          0.07679530	          0.01000005	          0.01000001	          0.01405240	          0.01000018	          0.38998282	          0.11723513	          0.01000001	          0.01000007	          0.03867966	          0.01000033	          0.01136022	          0.16403714	          0.01000014	          0.27025956	          0.01000024	          0.01000004	          0.23645548	          0.22528936	          0.01806568	
          1.14574589	         -4.28767997	         -0.87059548	          7.57605887	          1.39336963	          0.81895490	         -0.01172114	         30.50066955	         -1.41768670	         -5.26193586	        -11.17648139	          2.18351711	          0.24189981	        -16.51631856	         -1.28178814	         -1.00582961	        -10.84779412	          5.62079327	         31.03591568	         -6.17159384	          0.56945211	         -7.11175032	          0.11155302	          0.11047313	          0.01000008	          0.08580279	          0.17843404	          0.07895776	          0.15292236	          0.11620949	          0.06478453	          0.01000008	          0.01000004	          0.01185462	          0.01000002	          0.44179244	          0.14598595	          0.01000001	          0.01000006	          0.03263017	          0.01000016	          0.01100857	          0.13838177	          0.01000008	          0.22799104	          0.01000034	          0.01000005	          0.19947387	          0.20820007	          0.01524021	
          1.15686963	         -4.29867467	         -0.84349498	          7.55599749	          1.40930545	          0.81850706	         -0.01128173	         30.17246567	         -1.30898993	         -5.11756740	        -12.48887987	          1.73812798	          0.22709610	        -16.11856761	         -1.42104792	         -1.39462384	        -13.41774491	          4.52714476	         32.26464763	         -5.98135827	          1.01209307	         -7.32275456	          0.11581002	          0.09319515	          0.01000008	          0.12201705	          0.22807020	          0.06836799	          0.12900537	          0.12494455	          0.05465224	          0.01000011	          0.01075327	          0.01000060	          0.01000009	          0.46122208	          0.17665015	          0.01000002	          0.01000005	          0.02752682	          0.01787043	          0.02021835	          0.11673891	          0.01000015	          0.19233329	          0.01000020	          0.01000007	          0.16827618	          0.18493881	          0.01285665	
          1.16799338	         -4.30043542	         -0.81650754	          7.49892179	          1.42510367	          0.81855172	         -0.01074601	         29.88681118	         -1.19787384	         -5.02811061	        -13.90310716	          1.47727687	          0.21199444	        -15.45780862	         -1.57450698	         -1.82698408	        -16.40566378	          3.32252500	         33.05042532	         -5.80991577	          1.44964898	         -7.50168194	          0.11468508	          0.07861944	          0.01000008	          0.14367752	          0.25761858	          0.06442543	          0.10882899	          0.12502767	          0.04610464	          0.01000009	          0.04529935	          0.01000007	          0.01000005	          0.46772777	          0.19775820	          0.01000002	          0.01000005	          0.02322163	          0.08697021	          0.02065131	          0.09848099	          0.01000004	          0.16225241	          0.01000012	          0.01000003	          0.14195781	          0.15601442	          0.01084588	
          1.17911713	         -4.29487240	         -0.78492416	          7.40548150	          1.44069338	          0.81916882	         -0.01013823	         29.58459849	         -1.08358707	         -4.97121956	        -15.30348033	          1.43379692	          0.19624443	        -14.49792957	         -1.74157218	         -2.32633568	        -19.85032287	          2.02113958	         33.18627688	         -5.66000368	          1.87599839	         -7.64713535	          0.10971347	          0.06632338	          0.01000008	          0.15424457	          0.27479842	          0.06370224	          0.09180820	          0.11763717	          0.03889388	          0.01000008	          0.07586790	          0.01000009	          0.01000005	          0.44965469	          0.20661567	          0.01000003	          0.01000005	          0.01958977	          0.15230719	          0.02193520	          0.08307862	          0.01000002	          0.13687618	          0.01000010	          0.01000002	          0.11975563	          0.13161379	          0.01000001	
